<?xml version="1.0" encoding="UTF-8"?>
<svg id="katman_2" data-name="katman 2" xmlns="http://www.w3.org/2000/svg" viewBox="0 0 314.43 314.43">
  <defs>
    <style>
      .cls-1, .cls-2 {
        fill: #fff;
      }

      .cls-3 {
        fill: #c60000;
      }

      .cls-4 {
        fill: none;
        stroke: #fff;
        stroke-miterlimit: 10;
        stroke-width: 5px;
      }

      .cls-5 {
        fill: #1977cc;
      }

      .cls-2 {
        font-family: Montserrat-Black, Montserrat;
        font-size: 26px;
        font-weight: 800;
      }
    </style>
  </defs>
  <g id="BACKGROUND">
    <g>
      <circle class="cls-1" cx="157.21" cy="157.21" r="157.21"/>
      <circle class="cls-5" cx="157.21" cy="157.21" r="153.82"/>
      <circle class="cls-1" cx="157.21" cy="157.21" r="103.55"/>
      <circle class="cls-4" cx="157.21" cy="157.21" r="153.88" transform="translate(-65.12 157.21) rotate(-45)"/>
      <g>
        <path class="cls-3" d="m108.46,194.56c3.86,0,7.73.07,11.59-.02,2.99-.07,5.19,1.17,7.1,3.42,6.1,7.2,12.27,14.35,18.47,21.46,2.85,3.28,6.53,5.1,10.85,5.31,5.15.25,9.43-1.8,12.81-5.68,4.8-5.53,9.55-11.11,14.31-16.68,7.64-8.95,5.71-7.74,16.23-7.8,6.25-.04,12.5-.02,18.76,0,.71,0,1.68-.4,2.07.53.34.83-.15,1.62-.57,2.38-2.45,4.33-6.65,5.31-11.05,5.6-2.81.19-5.54.44-8.14,1.62-.75.34-1.66.69-1.54,1.46.13.86,0,1.97,1.12,2.56,1.18.63,2.28,1.16,3.72,1.16,4.34.02,8.68.46,13-.38,6.65-1.3,11.83-4.51,14.64-11.01,1.15-2.66,2.54-5.2,4.23-7.56,1.93-2.7,4.95-3.53,7.55-2.12,3.71,2.01,4.55,4.25,2.9,8-2.96,6.74-6.67,13.01-11.04,18.96-5.88,8-12.76,14.91-20.71,20.75-11.12,8.18-23.45,13.62-36.89,16.71-9.6,2.2-19.31,2.55-29.01,1.96-8.65-.52-17.07-2.72-25.19-5.82-25.97-9.91-44.55-27.73-55.97-53.17-1.39-3.1-.78-4.68,2.81-7.13,2.07-1.41,5.26-1.17,6.96.66,2.33,2.51,3.99,5.51,5.23,8.65,1.99,5.05,5.65,8.12,10.53,9.93,6.44,2.38,13,2.19,19.6.78,1.24-.27,2.35-.73,2.5-2.17.16-1.51-1.01-2.08-2.13-2.53-2.57-1.05-5.28-1.21-8.04-1.33-3.45-.14-6.82-.86-9.35-3.59-.24-.26-.51-.5-.69-.8-.7-1.13-1.83-2.38-1.16-3.65.53-1.02,2.05-.46,3.12-.47,3.79-.05,7.59-.02,11.38-.02Z"/>
        <path class="cls-3" d="m222.15,182.31c-8.43,0-16.86,0-25.29,0-3.1,0-4.75-1.63-4.75-4.81-.01-13.64,0-27.29,0-40.93,0-1.06-.06-2.13.02-3.18.09-1.13-.41-1.86-1.27-2.49-10.69-7.77-21.38-15.55-32.04-23.36-1.18-.87-2.07-.75-3.19.07-9.13,6.69-18.29,13.34-27.44,19.99-1.21.88-2.51,1.61-3.71,2.55-1.54,1.22-2.12,2.43-2.11,4.4.09,14.14.05,28.28.05,42.42,0,3.95-1.38,5.33-5.31,5.33-16.37,0-32.74,0-49.11,0-4.61,0-5.71-.92-6.61-5.51-1.73-8.84-2.33-17.82-1.63-26.74,1.34-17.15,6.78-33,16.37-47.35,10.46-15.64,24.24-27.29,41.26-35.06,8.33-3.81,17.02-6.43,26.16-7.54,3.54-.43,7.07-1.03,10.63-1.12,14.58-.35,28.61,2.32,41.97,8.18,16.53,7.25,30.05,18.33,40.57,33.06,9.19,12.87,14.95,27.2,17.21,42.88.89,6.2,1.33,12.5.9,18.77-.41,5.94-.9,11.9-2.51,17.68-.57,2.06-2.19,2.77-4.22,2.77-8.64-.01-17.28,0-25.93,0Zm-22.15-30.72c0,7.07,0,14.14,0,21.2,0,1.01-.12,2.12,1.44,1.88,4.26-.66,8.55-.26,12.82-.29,9.76-.07,19.53-.05,29.29,0,1.34,0,2.05-.25,2.21-1.73.26-2.43.74-4.83,1.06-7.25,1.26-9.7.08-19.26-2.02-28.68-3.18-14.23-9.72-26.81-19.09-37.97-8.34-9.93-18.34-17.61-29.93-23.22-8.57-4.15-17.61-6.57-27.08-7.87-7.59-1.04-15.1-.93-22.61-.15-7.39.77-14.55,2.73-21.51,5.44-10.2,3.97-19.38,9.7-27.45,16.98-4.92,4.44-9.34,9.51-13.21,15.03-10.09,14.4-15.5,30.4-16.56,47.9-.38,6.33,0,12.66,1.03,18.96.33,2,.81,2.58,2.76,2.57,13.63-.07,27.26-.09,40.88,0,2.11.01,2.53-.68,2.52-2.65-.08-13.57-.01-27.14-.07-40.71,0-2.22.84-3.72,2.59-4.97,5.71-4.1,11.35-8.29,17.03-12.43,6.82-4.97,13.65-9.91,20.46-14.9,1.36-.99,2.76-1.4,4.29-.58.91.49,1.75,1.14,2.6,1.75,12,8.72,23.97,17.46,36,26.13,1.79,1.29,2.57,2.8,2.55,4.97-.06,6.86-.02,13.71-.02,20.57Z"/>
        <path class="cls-5" d="m167.39,144.59c1.62,0,3.23-.07,4.84.02,2.27.12,3.38,1.49,3.37,3.96,0,2.28-1.15,3.63-3.39,3.69-3.09.09-6.18.08-9.27,0-1.35-.03-1.86.36-1.81,1.79.1,2.89.06,5.79.02,8.69-.03,2.77-1.59,4.44-4.03,4.39-2.31-.05-3.78-1.71-3.8-4.4-.03-2.97-.05-5.94,0-8.9.03-1.22-.42-1.59-1.59-1.57-2.95.06-5.9.04-8.85.01-2.57-.02-4.39-1.61-4.43-3.8-.04-2.11,1.87-3.84,4.39-3.88,2.81-.04,5.62-.11,8.42.03,1.73.09,2.14-.57,2.07-2.18-.12-2.68-.06-5.37-.02-8.05.04-3.12,1.16-4.25,4.12-4.24,2.61.01,3.68,1.21,3.71,4.2.02,2.83.08,5.65-.02,8.48-.05,1.42.46,1.87,1.82,1.78,1.47-.1,2.95-.02,4.42-.02Z"/>
      </g>
      <g>
        <text class="cls-2" transform="translate(51.91 210.09) rotate(-111.31)"><tspan x="0" y="0">Ö</tspan></text>
        <text class="cls-2" transform="translate(43.57 187.71) rotate(-100.6)"><tspan x="0" y="0">Z</tspan></text>
        <text class="cls-2" transform="translate(40.09 168) rotate(-90.98)"><tspan x="0" y="0">E</tspan></text>
        <text class="cls-2" transform="translate(39.98 148.3) rotate(-81.82)"><tspan x="0" y="0">L</tspan></text>
        <text class="cls-2" transform="translate(43.03 129.99) rotate(-74.72)"><tspan x="0" y="0"> </tspan></text>
        <text class="cls-2" transform="translate(45.59 120.04) rotate(-67.29)"><tspan x="0" y="0">E</tspan></text>
        <text class="cls-2" transform="translate(53.37 101.97) rotate(-57.77)"><tspan x="0" y="0">S</tspan></text>
        <text class="cls-2" transform="translate(63.76 85.79) rotate(-48.32)"><tspan x="0" y="0">E</tspan></text>
        <text class="cls-2" transform="translate(76.8 71.2) rotate(-38.02)"><tspan x="0" y="0">N</tspan></text>
        <text class="cls-2" transform="translate(95.13 57.36) rotate(-28.01)"><tspan x="0" y="0">L</tspan></text>
        <text class="cls-2" transform="translate(111.28 48.9) rotate(-18.71)"><tspan x="0" y="0">E</tspan></text>
        <text class="cls-2" transform="translate(129.86 42.72) rotate(-8.64)"><tspan x="0" y="0">R</tspan></text>
        <text class="cls-2" transform="translate(151.47 40) rotate(-.93)"><tspan x="0" y="0"> </tspan></text>
        <text class="cls-2" transform="translate(161.79 39.7) rotate(6.32)"><tspan x="0" y="0">S</tspan></text>
        <text class="cls-2" transform="translate(180.8 41.81) rotate(16.63)"><tspan x="0" y="0">A</tspan></text>
        <text class="cls-2" transform="translate(202.45 48.5) rotate(27.51)"><tspan x="0" y="0">Ğ</tspan></text>
        <text class="cls-2" transform="translate(221.88 59.02) rotate(37.33)"><tspan x="0" y="0">L</tspan></text>
        <text class="cls-2" transform="translate(236.38 70.55) rotate(44.64)"><tspan x="0" y="0">I</tspan></text>
        <text class="cls-2" transform="translate(244.7 78.47) rotate(52.81)"><tspan x="0" y="0">K</tspan></text>
        <text class="cls-2" transform="translate(257.7 96.55) rotate(60.73)"><tspan x="0" y="0"> </tspan></text>
        <text class="cls-2" transform="translate(262.92 105.36) rotate(68.7)"><tspan x="0" y="0">K</tspan></text>
        <text class="cls-2" transform="translate(270.49 124.93) rotate(79.26)"><tspan x="0" y="0">A</tspan></text>
        <text class="cls-2" transform="translate(274.67 147.35) rotate(90.93)"><tspan x="0" y="0">B</tspan></text>
        <text class="cls-2" transform="translate(273.91 169.9) rotate(98.35)"><tspan x="0" y="0">İ</tspan></text>
        <text class="cls-2" transform="translate(272.51 181.27) rotate(106.86)"><tspan x="0" y="0">N</tspan></text>
        <text class="cls-2" transform="translate(265.22 203.26) rotate(115.36)"><tspan x="0" y="0">İ</tspan></text>
      </g>
      <g>
        <text class="cls-2" transform="translate(104.97 282.51) rotate(19.29)"><tspan x="0" y="0">2</tspan></text>
        <text class="cls-2" transform="translate(131.96 290.66) rotate(6.85)"><tspan x="0" y="0">0</tspan></text>
        <text class="cls-2" transform="translate(161.95 292.85) rotate(-5.28)"><tspan x="0" y="0">2</tspan></text>
        <text class="cls-2" transform="translate(189.87 289.05) rotate(-17.7)"><tspan x="0" y="0">0</tspan></text>
      </g>
      <path class="cls-3" d="m246.14,240.67c-3.14-3.14-8.24-3.14-11.39,0s-3.14,8.24,0,11.39l11.39,11.39,11.39-11.39c3.14-3.14,3.14-8.24,0-11.39s-8.24-3.14-11.39,0Z"/>
      <path class="cls-3" d="m66.28,240.67c3.14-3.14,8.24-3.14,11.39,0,3.14,3.14,3.14,8.24,0,11.39l-11.39,11.39-11.39-11.39c-3.14-3.14-3.14-8.24,0-11.39s8.24-3.14,11.39,0Z"/>
    </g>
  </g>
</svg>