<?xml version="1.0" encoding="UTF-8"?>
<svg id="katman_2" data-name="katman 2" xmlns="http://www.w3.org/2000/svg" viewBox="0 0 470.03 245.53">
  <defs>
    <style>
      .cls-1 {
        letter-spacing: -.01em;
      }

      .cls-2 {
        fill: #c60000;
      }

      .cls-3 {
        fill: #1977cc;
      }

      .cls-4 {
        letter-spacing: .01em;
      }

      .cls-5 {
        font-family: Montserrat-Black, Montserrat;
        font-size: 38.44px;
        font-weight: 800;
      }

      .cls-6 {
        letter-spacing: 0em;
      }
    </style>
  </defs>
  <g id="BACKGROUND">
    <g>
      <text class="cls-5" transform="translate(6.76 112.53)"><tspan class="cls-2"><tspan x="0" y="0">Ö</tspan><tspan class="cls-6" x="32.6" y="0">z</tspan><tspan x="54.32" y="0">el</tspan></tspan><tspan class="cls-3"><tspan x="0" y="46.13">Esenler S</tspan><tspan class="cls-4" x="191.63" y="46.13">a</tspan><tspan x="216.58" y="46.13">ğlık </tspan><tspan class="cls-1" x="307.92" y="46.13">K</tspan><tspan x="336.95" y="46.13">abini</tspan></tspan></text>
      <path class="cls-2" d="m470.03,111.42c0-4.79-2-6.82-6.76-6.82-17.36,0-34.71,0-52.07,0-.6,0-1.2,0-1.94,0v-2.25c0-17.28,0-34.57,0-51.85,0-4.62-1.97-6.61-6.54-6.62-6.26-.01-12.52,0-18.77,0-16.12,0-32.24,0-48.36,0-4.44,0-6.47,2.04-6.47,6.46,0,19.78,0,39.56,0,59.33,0,3.5,2.22,5.96,5.41,5.99,3.27.04,5.6-2.47,5.6-6.05,0-17.42.01-34.83.01-52.25,0-.73,0-1.45,0-2.41,1.04,0,1.89,0,2.74,0,17.91-.06,35.82-.1,53.73-.19,1.41,0,1.79.53,1.77,1.87-.09,5.82-.13,11.64-.14,17.46-.02,11.59.11,23.19-.06,34.78-.06,4.31,2.37,6.9,6.75,6.85,15.68-.18,31.36-.12,47.05-.15,2.27,0,4.54,0,6.98,0,0,1.24-.05,2.16.01,3.07.09,1.39.27,2.77.4,4.16-.05,1.48-.1,2.97-.15,4.45-.09.66-.25,1.32-.25,1.98-.02,14.07-.01,28.15-.02,42.22,0,.72,0,1.43,0,2.33-1.07,0-1.86,0-2.66,0-17.29,0-34.59.01-51.88.02-3.88,0-6.18,2.17-6.18,5.83,0,6.25,0,12.5,0,18.74,0,11.22,0,22.44-.01,33.67,0,.77,0,1.55,0,2.4h-58.1c0-.96,0-1.75,0-2.54,0-17.17-.08-34.35.05-51.52.03-3.61-2.29-6.68-6.6-6.68-48.79.1-277.59.06-326.38.06-.74,0-1.49-.02-2.23.03-3.38.26-5.74,3.71-4.78,6.95.83,2.79,2.8,4.08,6.29,4.08,30.44,0,240.87-.01,271.31-.02,16.31,0,32.61,0,48.92.01.73,0,1.46,0,2.39,0,0,.9,0,1.63,0,2.35,0,17.42,0,34.84,0,52.27,0,3.95,2.1,6.06,6.08,6.07,2.35,0,4.71-.04,7.06-.04,20.52.01,41.04.04,61.56.03,2.87,0,5.07-2.05,5.37-4.89.1-.98.08-1.98.08-2.97,0-16.8,0-33.6.01-50.41,0-.79,0-1.58,0-2.27.24-.14.29-.19.34-.19,17.98,0,35.95-.02,53.93,0,4.35,0,6.49-2.06,6.49-6.46,0-22.31,0-44.61,0-66.92Z"/>
      <g>
        <path class="cls-3" d="m426.79,44.51c-2.23.03-3.55,1.39-3.52,3.25.02,1.94,1.45,3.21,3.74,3.22,3.71.03,7.42,0,11.13,0,3.83,0,7.67.02,11.5,0,2.11-.02,3.55-1.34,3.61-3.2.05-1.83-1.39-3.36-3.45-3.36-7.67-.02-15.33,0-23,.08Z"/>
        <path class="cls-3" d="m402.06,26.04c.02,2.34,1.37,3.78,3.43,3.74,1.94-.04,3.17-1.45,3.18-3.77.02-7.37.01-14.74,0-22.11,0-2.5-1.17-3.87-3.23-3.9-2.2-.04-3.37,1.31-3.38,3.93-.01,3.59,0,7.18,0,10.78h0c0,3.78-.02,7.56,0,11.33Z"/>
        <path class="cls-3" d="m382.3,29.4c1.93,1.92,3.87,3.83,5.85,5.71,1.03.98,2.34,1.41,3.55.58.93-.64,1.57-1.72,2.39-2.67-.61-1.1-.94-1.99-1.52-2.67-1-1.17-2.15-2.22-3.24-3.32-4.29-4.28-8.61-8.55-12.88-12.85-1.08-1.09-2.41-1.59-3.69-.94-.92.47-2.03,1.64-2.05,2.52-.02,1.17.68,2.6,1.52,3.49,3.26,3.47,6.69,6.79,10.07,10.15Z"/>
        <path class="cls-3" d="m419.83,66.84c4.84,4.86,9.68,9.72,14.54,14.56,1.04,1.04,2.4,1.6,3.69.81,1-.61,1.67-1.74,2.51-2.66-.54-1.09-.74-1.94-1.26-2.47-5.56-5.63-11.14-11.23-16.77-16.79-1.21-1.2-3.18-1.07-4.39.05-1.28,1.18-1.42,3.08-.25,4.5.58.72,1.28,1.34,1.94,1.99Z"/>
        <path class="cls-3" d="m422.75,35.02c5.44-5.41,10.84-10.85,16.21-16.32.65-.66.99-1.63,1.67-2.79-.91-.97-1.58-2.05-2.55-2.62-1.34-.79-2.61-.07-3.64.95-1.84,1.82-3.66,3.65-5.5,5.46-3.6,3.54-7.23,7.04-10.79,10.62-1.41,1.42-1.36,3.51-.05,4.82,1.26,1.26,3.24,1.28,4.65-.12Z"/>
      </g>
    </g>
  </g>
</svg>