<?xml version="1.0" encoding="UTF-8"?>
<svg id="katman_2" data-name="katman 2" xmlns="http://www.w3.org/2000/svg" viewBox="0 0 492.59 188.84">
  <defs>
    <style>
      .cls-1 {
        fill: #c60000;
      }

      .cls-2 {
        fill: #1977cc;
      }
    </style>
  </defs>
  <g id="BACKGROUND">
    <g>
      <g>
        <path class="cls-1" d="m203.5,64.86c-2.12,0-4.08-.32-5.87-.97s-3.34-1.57-4.65-2.75c-1.31-1.19-2.33-2.59-3.05-4.19-.73-1.61-1.09-3.36-1.09-5.26s.36-3.68,1.09-5.27c.73-1.6,1.75-2.99,3.05-4.18,1.31-1.19,2.86-2.11,4.65-2.75s3.73-.97,5.83-.97,4.07.32,5.85.97c1.78.65,3.32,1.57,4.63,2.75,1.31,1.19,2.33,2.58,3.06,4.18s1.09,3.35,1.09,5.27-.36,3.65-1.09,5.26c-.73,1.61-1.75,3.01-3.06,4.19-1.31,1.19-2.85,2.11-4.63,2.75-1.78.65-3.72.97-5.82.97Zm-4.15-27.54c-.94,0-1.73-.29-2.37-.86-.64-.58-.96-1.34-.96-2.3s.32-1.73.96-2.32c.64-.59,1.43-.88,2.37-.88s1.73.29,2.37.88c.64.59.96,1.36.96,2.32s-.32,1.73-.96,2.3c-.64.58-1.43.86-2.37.86Zm4.11,20.67c.82,0,1.57-.14,2.28-.43.7-.29,1.32-.7,1.85-1.24s.94-1.2,1.24-1.98c.3-.78.44-1.66.44-2.65s-.15-1.87-.44-2.65c-.3-.78-.71-1.44-1.24-1.98s-1.15-.95-1.85-1.24c-.7-.29-1.46-.43-2.28-.43s-1.57.14-2.28.43-1.32.7-1.85,1.24c-.53.54-.94,1.2-1.24,1.98-.3.78-.44,1.66-.44,2.65s.15,1.87.44,2.65c.3.78.71,1.44,1.24,1.98.53.54,1.15.95,1.85,1.24s1.46.43,2.28.43Zm4.11-20.67c-.94,0-1.73-.29-2.37-.86-.64-.58-.96-1.34-.96-2.3s.32-1.73.96-2.32c.64-.59,1.43-.88,2.37-.88s1.73.29,2.37.88c.64.59.96,1.36.96,2.32s-.32,1.73-.96,2.3c-.64.58-1.43.86-2.37.86Z"/>
        <path class="cls-1" d="m220.28,64.28v-4.68l10.78-11.67,1.37,2.59h-11.85v-5.94h18.63v4.68l-10.78,11.67-1.37-2.59h12.56v5.94h-19.33Z"/>
        <path class="cls-1" d="m253.13,64.64c-2.47,0-4.62-.44-6.46-1.33-1.84-.89-3.27-2.11-4.28-3.65-1.01-1.55-1.52-3.29-1.52-5.24s.5-3.76,1.5-5.29c1-1.54,2.37-2.74,4.11-3.6,1.74-.86,3.7-1.3,5.87-1.3,2,0,3.85.38,5.54,1.15,1.69.77,3.05,1.91,4.07,3.42s1.54,3.38,1.54,5.62c0,.29-.01.61-.04.95-.02.35-.05.67-.07.95h-15.59v-3.92h11.15l-3.15,1.04c0-.77-.14-1.42-.43-1.96s-.67-.96-1.17-1.26c-.49-.3-1.09-.45-1.78-.45s-1.29.15-1.8.45c-.51.3-.9.72-1.17,1.26s-.41,1.19-.41,1.96v1.22c0,.84.17,1.56.52,2.16.35.6.84,1.05,1.48,1.35.64.3,1.42.45,2.33.45s1.71-.12,2.32-.36c.6-.24,1.24-.6,1.91-1.08l4.37,4.28c-.99,1.03-2.2,1.82-3.65,2.36s-3.18.81-5.2.81Z"/>
        <path class="cls-1" d="m266.13,64.28v-26.71h8.37v26.71h-8.37Z"/>
        <path class="cls-2" d="m76.25,101.08h12.96v6.41h-21.55v-25.2h21.07v6.41h-12.48v12.38Zm-.59-9.43h11.55v6.12h-11.55v-6.12Z"/>
        <path class="cls-2" d="m100.24,107.85c-1.73,0-3.43-.18-5.11-.54-1.68-.36-3.04-.83-4.07-1.4l2.3-5.36c.96.55,2.08.98,3.35,1.3,1.27.31,2.51.47,3.72.47,1.01,0,1.7-.08,2.06-.25.36-.17.54-.4.54-.68s-.21-.5-.63-.63-.98-.23-1.67-.31-1.45-.16-2.28-.27c-.83-.11-1.66-.27-2.5-.49-.84-.22-1.61-.54-2.3-.97-.69-.43-1.25-1.01-1.67-1.75s-.63-1.66-.63-2.79c0-1.25.39-2.38,1.17-3.38.78-1.01,1.94-1.82,3.48-2.43,1.54-.61,3.45-.92,5.72-.92,1.48,0,2.96.13,4.44.4,1.48.26,2.75.67,3.82,1.22l-2.3,5.36c-1.04-.55-2.06-.93-3.05-1.13-1-.2-1.93-.31-2.8-.31-1.06,0-1.78.1-2.17.29s-.57.41-.57.65c0,.29.21.5.63.65.42.14.98.25,1.67.32.69.07,1.45.16,2.28.27.83.11,1.65.28,2.48.5.83.23,1.59.56,2.28.99.69.43,1.25,1.01,1.67,1.75.42.73.63,1.66.63,2.79s-.38,2.27-1.15,3.29c-.77,1.02-1.93,1.84-3.48,2.45-1.56.61-3.51.92-5.85.92Z"/>
        <path class="cls-2" d="m124.43,107.85c-2.47,0-4.62-.44-6.46-1.33-1.84-.89-3.27-2.11-4.28-3.65-1.01-1.55-1.52-3.29-1.52-5.24s.5-3.76,1.5-5.29c1-1.54,2.37-2.74,4.11-3.6,1.74-.86,3.7-1.3,5.87-1.3,2,0,3.85.38,5.54,1.15,1.69.77,3.05,1.91,4.07,3.42,1.02,1.51,1.54,3.38,1.54,5.62,0,.29-.01.61-.04.95s-.05.67-.07.95h-15.59v-3.92h11.15l-3.15,1.04c0-.77-.14-1.42-.43-1.96s-.67-.96-1.17-1.26c-.49-.3-1.09-.45-1.78-.45s-1.29.15-1.8.45c-.51.3-.9.72-1.17,1.26s-.41,1.19-.41,1.96v1.22c0,.84.17,1.56.52,2.16s.84,1.05,1.48,1.35c.64.3,1.42.45,2.33.45s1.71-.12,2.32-.36c.6-.24,1.24-.6,1.91-1.08l4.37,4.28c-.99,1.03-2.2,1.82-3.65,2.36s-3.18.81-5.2.81Z"/>
        <path class="cls-2" d="m151.5,87.43c1.56,0,2.96.31,4.22.92,1.26.61,2.25,1.57,2.98,2.86.73,1.3,1.09,2.98,1.09,5.04v11.23h-8.37v-9.83c0-1.22-.22-2.09-.67-2.61-.44-.52-1.05-.77-1.81-.77-.57,0-1.09.13-1.57.38s-.86.67-1.15,1.24c-.28.58-.43,1.36-.43,2.34v9.25h-8.37v-19.69h7.96v5.76l-1.59-1.66c.79-1.49,1.86-2.6,3.2-3.35,1.35-.74,2.85-1.12,4.5-1.12Z"/>
        <path class="cls-2" d="m163.43,107.49v-26.71h8.37v26.71h-8.37Z"/>
        <path class="cls-2" d="m186.69,107.85c-2.47,0-4.62-.44-6.46-1.33-1.84-.89-3.27-2.11-4.28-3.65-1.01-1.55-1.52-3.29-1.52-5.24s.5-3.76,1.5-5.29c1-1.54,2.37-2.74,4.11-3.6,1.74-.86,3.7-1.3,5.87-1.3,2,0,3.85.38,5.54,1.15,1.69.77,3.05,1.91,4.07,3.42,1.02,1.51,1.54,3.38,1.54,5.62,0,.29-.01.61-.04.95s-.05.67-.07.95h-15.59v-3.92h11.15l-3.15,1.04c0-.77-.14-1.42-.43-1.96s-.67-.96-1.17-1.26c-.49-.3-1.09-.45-1.78-.45s-1.29.15-1.8.45c-.51.3-.9.72-1.17,1.26s-.41,1.19-.41,1.96v1.22c0,.84.17,1.56.52,2.16s.84,1.05,1.48,1.35c.64.3,1.42.45,2.33.45s1.71-.12,2.32-.36c.6-.24,1.24-.6,1.91-1.08l4.37,4.28c-.99,1.03-2.2,1.82-3.65,2.36s-3.18.81-5.2.81Z"/>
        <path class="cls-2" d="m199.69,107.49v-19.69h7.96v5.94l-1.3-1.69c.62-1.54,1.6-2.69,2.96-3.46,1.36-.77,2.99-1.15,4.89-1.15v7.2c-.37-.05-.7-.08-.98-.11-.28-.02-.57-.04-.87-.04-1.26,0-2.29.32-3.09.95-.8.64-1.2,1.73-1.2,3.29v8.75h-8.37Z"/>
        <path class="cls-2" d="m237.61,108.06c-2.17,0-4.27-.24-6.3-.72-2.02-.48-3.69-1.1-5-1.87l2.81-6.19c1.23.7,2.61,1.25,4.13,1.67s2.99.63,4.43.63c.84,0,1.5-.05,1.98-.16s.83-.26,1.06-.47.33-.45.33-.74c0-.46-.26-.82-.78-1.08-.52-.26-1.2-.49-2.06-.67s-1.78-.37-2.8-.58c-1.01-.2-2.03-.47-3.06-.81-1.03-.34-1.96-.78-2.81-1.33-.85-.55-1.54-1.28-2.06-2.18s-.78-2.02-.78-3.37c0-1.56.45-2.98,1.35-4.27.9-1.28,2.25-2.31,4.04-3.08,1.79-.77,4.02-1.15,6.69-1.15,1.75,0,3.48.18,5.18.54,1.7.36,3.23.91,4.59,1.66l-2.63,6.16c-1.28-.62-2.53-1.09-3.72-1.4-1.2-.31-2.36-.47-3.5-.47-.84,0-1.51.07-2,.22-.49.14-.85.34-1.06.58s-.31.5-.31.79c0,.43.26.77.78,1.03s1.2.46,2.06.63,1.79.35,2.81.54,2.04.46,3.06.79,1.94.78,2.8,1.33c.85.55,1.54,1.27,2.06,2.16s.78,1.99.78,3.31c0,1.54-.45,2.95-1.35,4.23-.9,1.28-2.24,2.32-4.02,3.1-1.78.78-4.01,1.17-6.7,1.17Z"/>
        <path class="cls-2" d="m258.54,107.85c-1.65,0-3.04-.28-4.15-.83-1.11-.55-1.95-1.29-2.52-2.21-.57-.92-.85-1.95-.85-3.08,0-1.27.33-2.35,1-3.24.67-.89,1.69-1.56,3.06-2.02s3.1-.68,5.2-.68h4.22v3.92h-2.89c-.89,0-1.54.14-1.94.41-.41.28-.61.69-.61,1.24,0,.46.18.83.54,1.13.36.3.85.45,1.46.45.57,0,1.09-.15,1.57-.45.48-.3.83-.77,1.06-1.42l1.07,2.41c-.32,1.46-1,2.56-2.04,3.28-1.04.72-2.43,1.08-4.19,1.08Zm5.74-.36v-3.49l-.59-.94v-6.62c0-.96-.3-1.69-.91-2.2-.61-.5-1.59-.76-2.94-.76-.91,0-1.84.14-2.78.41-.94.28-1.74.65-2.41,1.13l-2.67-5.36c1.19-.72,2.61-1.27,4.26-1.66,1.65-.38,3.27-.58,4.85-.58,3.48,0,6.18.76,8.09,2.27,1.91,1.51,2.87,3.91,2.87,7.2v10.58h-7.78Z"/>
        <path class="cls-2" d="m284.72,106.41c-1.7,0-3.3-.39-4.78-1.17s-2.68-1.88-3.59-3.29c-.91-1.42-1.37-3.1-1.37-5.04s.46-3.62,1.37-5.04c.91-1.42,2.11-2.51,3.59-3.28,1.48-.77,3.07-1.15,4.78-1.15s3.19.34,4.31,1.01c1.12.67,1.96,1.71,2.5,3.11.54,1.4.81,3.19.81,5.35s-.27,3.94-.81,5.35-1.38,2.45-2.5,3.13c-1.12.68-2.56,1.03-4.31,1.03Zm1.63,8.42c-2,0-3.88-.2-5.63-.61-1.75-.41-3.26-1.02-4.52-1.84l2.81-5.54c.79.6,1.8,1.07,3.02,1.42,1.22.35,2.38.52,3.46.52,1.73,0,2.96-.35,3.7-1.06.74-.71,1.11-1.72,1.11-3.04v-1.66l.37-6.12.04-6.12v-2.99h7.96v15.77c0,3.82-1.09,6.65-3.26,8.5-2.17,1.85-5.2,2.77-9.07,2.77Zm1-28.84c-2.22,0-4.04-.55-5.46-1.64-1.42-1.09-2.18-2.59-2.28-4.48h5c.05.67.33,1.21.83,1.6.51.4,1.14.59,1.91.59s1.4-.2,1.91-.59c.51-.4.78-.93.83-1.6h5c-.1,1.9-.86,3.39-2.28,4.48-1.42,1.09-3.24,1.64-5.46,1.64Zm-.41,14.08c.67,0,1.26-.13,1.78-.4.52-.26.93-.64,1.22-1.12.3-.48.44-1.03.44-1.66s-.15-1.21-.44-1.67c-.3-.47-.7-.83-1.22-1.08s-1.11-.38-1.78-.38-1.23.13-1.76.38c-.53.25-.95.61-1.26,1.08s-.46,1.03-.46,1.67.15,1.18.46,1.66c.31.48.73.85,1.26,1.12.53.26,1.12.4,1.76.4Z"/>
        <path class="cls-2" d="m302.39,107.49v-26.71h8.37v26.71h-8.37Z"/>
        <path class="cls-2" d="m314.46,107.49v-19.69h8.37v19.69h-8.37Z"/>
        <path class="cls-2" d="m326.54,107.49v-26.71h8.37v26.71h-8.37Zm7-3.24l.19-9.58,7-6.88h9.89l-9.26,9.43-4.18,3.28-3.63,3.74Zm7.63,3.24l-5.56-6.84,5.15-6.16,10.52,13h-10.11Z"/>
        <path class="cls-2" d="m364.31,107.49v-25.2h8.59v25.2h-8.59Zm7.81-5.4l-.48-9.32,9.78-10.48h9.52l-10.96,11.74-4.85,4.82-3,3.24Zm9.22,5.4l-7.63-9.79,5.67-5.83,12.07,15.62h-10.11Z"/>
        <path class="cls-2" d="m398.53,107.85c-1.65,0-3.04-.28-4.15-.83-1.11-.55-1.95-1.29-2.52-2.21-.57-.92-.85-1.95-.85-3.08,0-1.27.33-2.35,1-3.24.67-.89,1.69-1.56,3.06-2.02s3.1-.68,5.2-.68h4.22v3.92h-2.89c-.89,0-1.54.14-1.94.41-.41.28-.61.69-.61,1.24,0,.46.18.83.54,1.13.36.3.85.45,1.46.45.57,0,1.09-.15,1.57-.45.48-.3.83-.77,1.06-1.42l1.07,2.41c-.32,1.46-1,2.56-2.04,3.28-1.04.72-2.43,1.08-4.19,1.08Zm5.74-.36v-3.49l-.59-.94v-6.62c0-.96-.3-1.69-.91-2.2-.61-.5-1.59-.76-2.94-.76-.91,0-1.84.14-2.78.41-.94.28-1.74.65-2.41,1.13l-2.67-5.36c1.19-.72,2.61-1.27,4.26-1.66,1.65-.38,3.27-.58,4.85-.58,3.48,0,6.18.76,8.09,2.27,1.91,1.51,2.87,3.91,2.87,7.2v10.58h-7.78Z"/>
        <path class="cls-2" d="m415.68,107.49v-26.71h8.37v9.65l-.37,7.2-.04,7.2v2.66h-7.96Zm13.52.36c-1.85,0-3.35-.36-4.48-1.08-1.14-.72-1.96-1.84-2.46-3.35s-.76-3.44-.76-5.8.27-4.24.81-5.74c.54-1.5,1.39-2.62,2.54-3.35s2.6-1.1,4.35-1.1,3.41.41,4.89,1.22c1.48.82,2.67,1.99,3.56,3.51.89,1.52,1.33,3.34,1.33,5.46s-.44,3.93-1.33,5.45-2.07,2.7-3.56,3.53-3.11,1.24-4.89,1.24Zm-2-6.34c.62,0,1.17-.14,1.67-.43.49-.29.89-.73,1.18-1.31.3-.59.44-1.3.44-2.14s-.15-1.58-.44-2.14c-.3-.56-.69-.99-1.18-1.28-.49-.29-1.05-.43-1.67-.43s-1.17.14-1.67.43-.89.71-1.18,1.28c-.3.56-.44,1.28-.44,2.14s.15,1.55.44,2.14c.3.59.69,1.03,1.18,1.31s1.05.43,1.67.43Z"/>
        <path class="cls-2" d="m445.79,86.21c-1.53,0-2.75-.4-3.67-1.19s-1.37-1.78-1.37-2.95.46-2.16,1.37-2.95,2.14-1.19,3.67-1.19,2.75.37,3.67,1.12c.91.75,1.37,1.71,1.37,2.88,0,1.25-.46,2.27-1.37,3.08-.91.8-2.14,1.21-3.67,1.21Zm-4.19,21.28v-19.69h8.37v19.69h-8.37Z"/>
        <path class="cls-2" d="m467.75,87.43c1.56,0,2.96.31,4.22.92,1.26.61,2.25,1.57,2.98,2.86.73,1.3,1.09,2.98,1.09,5.04v11.23h-8.37v-9.83c0-1.22-.22-2.09-.67-2.61-.44-.52-1.05-.77-1.81-.77-.57,0-1.09.13-1.57.38s-.86.67-1.15,1.24c-.28.58-.43,1.36-.43,2.34v9.25h-8.37v-19.69h7.96v5.76l-1.59-1.66c.79-1.49,1.86-2.6,3.2-3.35,1.35-.74,2.85-1.12,4.5-1.12Z"/>
        <path class="cls-2" d="m483.87,86.21c-1.53,0-2.75-.4-3.67-1.19s-1.37-1.78-1.37-2.95.46-2.16,1.37-2.95,2.14-1.19,3.67-1.19,2.75.37,3.67,1.12c.91.75,1.37,1.71,1.37,2.88,0,1.25-.46,2.27-1.37,3.08-.91.8-2.14,1.21-3.67,1.21Zm-4.19,21.28v-19.69h8.37v19.69h-8.37Z"/>
      </g>
      <path class="cls-1" d="m39.76,63.25c0-4.49,1.93-6.38,6.51-6.38,16.72,0,33.44,0,50.16,0,.58,0,1.15,0,1.87,0v-2.1c0-16.19,0-32.37,0-48.56,0-4.33,1.9-6.19,6.3-6.2,6.03,0,12.06,0,18.09,0,15.53,0,31.06,0,46.59,0,4.28,0,6.23,1.91,6.23,6.05,0,18.52,0,37.04,0,55.57,0,3.27-2.14,5.58-5.21,5.61-3.15.03-5.4-2.31-5.4-5.66,0-16.31-.01-32.62-.01-48.94,0-.68,0-1.36,0-2.26-1,0-1.82,0-2.64,0-17.25-.05-34.51-.09-51.76-.18-1.36,0-1.72.5-1.7,1.75.09,5.45.12,10.9.13,16.35.02,10.86-.1,21.72.05,32.57.06,4.04-2.28,6.46-6.5,6.42-15.11-.17-30.22-.11-45.33-.14-2.19,0-4.37,0-6.73,0,0,1.16.05,2.02-.01,2.88-.09,1.3-.26,2.6-.39,3.89.05,1.39.1,2.78.15,4.17.08.62.24,1.23.24,1.85.02,13.18.01,26.36.02,39.54,0,.67,0,1.34,0,2.18,1.03,0,1.79,0,2.56,0,16.66,0,33.32.01,49.99.02,3.74,0,5.95,2.03,5.95,5.46,0,5.85,0,11.7,0,17.55,0,10.51,0,21.02.01,31.53,0,.72,0,1.45,0,2.25,18.8,0,37.29,0,55.97,0,0-.9,0-1.64,0-2.38,0-16.08.08-32.17-.05-48.25-.03-3.38,2.2-6.26,6.35-6.25,47.01.09,267.43.06,314.44.05.72,0,1.44-.02,2.15.03,3.26.25,5.53,3.48,4.6,6.51-.8,2.62-2.7,3.82-6.06,3.82-29.32,0-232.06-.01-261.38-.01-15.71,0-31.42,0-47.13,0-.7,0-1.4,0-2.3,0,0,.85,0,1.53,0,2.21,0,16.32,0,32.63,0,48.95,0,3.7-2.03,5.68-5.85,5.69-2.27,0-4.53-.04-6.8-.04-19.77.01-39.54.03-59.31.03-2.76,0-4.88-1.92-5.17-4.58-.1-.92-.08-1.86-.08-2.78,0-15.74,0-31.47-.01-47.21,0-.74,0-1.48,0-2.12-.23-.13-.28-.18-.32-.18-17.32,0-34.64-.02-51.96,0-4.19,0-6.26-1.93-6.26-6.05,0-20.89,0-41.78,0-62.67Z"/>
      <g>
        <path class="cls-2" d="m25.48,59.86c2.15.02,3.42,1.3,3.4,3.04-.02,1.81-1.4,3-3.6,3.02-3.57.03-7.15,0-10.72,0-3.69,0-7.39.02-11.08,0-2.03-.02-3.42-1.26-3.47-2.99-.05-1.72,1.34-3.14,3.32-3.15,7.39-.02,14.77,0,22.16.08Z"/>
        <path class="cls-2" d="m49.31,42.56c-.02,2.19-1.32,3.54-3.3,3.5-1.87-.03-3.06-1.36-3.06-3.53-.02-6.9-.01-13.8,0-20.71,0-2.34,1.13-3.62,3.11-3.65,2.12-.04,3.25,1.23,3.26,3.68.01,3.36,0,6.73,0,10.09h0c0,3.54.02,7.08,0,10.61Z"/>
        <path class="cls-2" d="m68.35,45.71c-1.86,1.8-3.73,3.59-5.63,5.34-.99.92-2.26,1.32-3.42.54-.9-.6-1.51-1.61-2.3-2.5.59-1.03.91-1.86,1.46-2.5.96-1.1,2.07-2.08,3.12-3.11,4.14-4.01,8.29-8,12.41-12.03,1.04-1.02,2.33-1.49,3.55-.88.88.44,1.96,1.54,1.97,2.36.02,1.09-.66,2.43-1.46,3.27-3.14,3.25-6.44,6.36-9.7,9.5Z"/>
        <path class="cls-2" d="m32.19,80.77c-4.67,4.55-9.33,9.1-14.01,13.64-1,.97-2.31,1.5-3.56.76-.96-.57-1.61-1.63-2.41-2.49.52-1.02.71-1.82,1.22-2.32,5.35-5.27,10.73-10.52,16.16-15.72,1.17-1.12,3.07-1,4.23.04,1.23,1.11,1.37,2.88.24,4.22-.56.67-1.24,1.25-1.87,1.87Z"/>
        <path class="cls-2" d="m29.38,50.97c-5.24-5.07-10.45-10.16-15.62-15.29-.63-.62-.95-1.52-1.61-2.61.87-.91,1.52-1.92,2.45-2.46,1.29-.74,2.51-.07,3.51.89,1.77,1.7,3.53,3.42,5.3,5.11,3.47,3.32,6.97,6.6,10.4,9.94,1.36,1.33,1.31,3.28.05,4.52-1.21,1.18-3.12,1.2-4.48-.11Z"/>
      </g>
    </g>
  </g>
</svg>