<?xml version="1.0" encoding="UTF-8"?>
<svg id="katman_2" data-name="katman 2" xmlns="http://www.w3.org/2000/svg" viewBox="0 0 441.34 138.84">
  <defs>
    <style>
      .cls-1 {
        fill: #c60000;
      }

      .cls-2 {
        fill: #1977cc;
      }
    </style>
  </defs>
  <g id="BACKGROUND">
    <g>
      <g>
        <path class="cls-2" d="m50.37,60.86c0-1.13.34-2.02,1.01-2.67.67-.65,1.59-.98,2.75-.98h13.34c.19.29.36.67.51,1.14.15.47.22.97.22,1.49,0,1-.22,1.7-.67,2.12-.44.42-1.03.63-1.76.63h-8.53v3.66h9.1c.19.29.36.66.51,1.12.15.46.22.95.22,1.47,0,1-.22,1.7-.65,2.12-.43.42-1.01.63-1.74.63h-7.44v4.13h10.39c.19.29.36.67.5,1.14s.22.97.22,1.49c0,1-.22,1.71-.67,2.14-.44.43-1.03.65-1.76.65h-11.8c-1.16,0-2.08-.33-2.75-.98-.67-.66-1.01-1.55-1.01-2.67v-16.62Z"/>
        <path class="cls-2" d="m88.57,75.32c0,1.99-.77,3.55-2.3,4.68s-3.8,1.69-6.79,1.69c-1.13,0-2.18-.08-3.15-.24-.97-.16-1.8-.4-2.49-.73-.69-.33-1.23-.74-1.62-1.24s-.59-1.09-.59-1.77c0-.63.13-1.16.4-1.59s.59-.79.97-1.08c.78.42,1.68.79,2.69,1.12,1.01.33,2.18.49,3.5.49.83,0,1.48-.12,1.92-.35.44-.24.67-.55.67-.94,0-.37-.16-.65-.49-.86s-.86-.38-1.62-.51l-1.21-.24c-2.34-.45-4.09-1.15-5.24-2.1-1.15-.96-1.72-2.32-1.72-4.11,0-.97.21-1.85.65-2.63.43-.79,1.04-1.44,1.82-1.96.78-.52,1.72-.93,2.81-1.22,1.09-.29,2.3-.43,3.62-.43,1,0,1.93.07,2.81.22.88.14,1.64.36,2.28.65.65.29,1.16.66,1.54,1.12.38.46.57,1,.57,1.63s-.11,1.12-.34,1.55c-.23.43-.52.79-.87,1.08-.22-.13-.54-.27-.97-.41-.43-.14-.9-.27-1.42-.39-.51-.12-1.03-.22-1.56-.29-.53-.08-1-.12-1.44-.12-.89,0-1.58.1-2.06.29s-.73.5-.73.92c0,.29.13.52.4.71.27.18.78.35,1.54.51l1.25.28c2.59.58,4.43,1.37,5.52,2.38,1.09,1.01,1.64,2.31,1.64,3.91Z"/>
        <path class="cls-2" d="m102.48,81.65c-1.59,0-3.07-.22-4.43-.65-1.36-.43-2.55-1.08-3.56-1.95s-1.81-1.95-2.39-3.26c-.58-1.31-.87-2.84-.87-4.6s.29-3.21.87-4.46c.58-1.24,1.34-2.27,2.28-3.07.94-.8,2.02-1.39,3.23-1.77,1.21-.38,2.45-.57,3.72-.57,1.43,0,2.73.21,3.9.63,1.17.42,2.18,1,3.03,1.73.85.73,1.51,1.61,1.98,2.63.47,1.02.71,2.14.71,3.34,0,.89-.26,1.57-.77,2.04-.51.47-1.23.77-2.14.9l-9.99,1.45c.3.86.9,1.51,1.82,1.95.92.43,1.97.65,3.15.65,1.1,0,2.15-.14,3.13-.41.98-.28,1.79-.6,2.41-.96.43.26.79.63,1.09,1.1.3.47.44.97.44,1.49,0,1.18-.57,2.06-1.7,2.63-.86.45-1.83.75-2.91.9-1.08.16-2.09.24-3.03.24Zm-1.13-15.44c-.65,0-1.21.1-1.68.31-.47.21-.86.48-1.15.81-.3.33-.52.69-.67,1.1-.15.41-.24.82-.26,1.24l6.91-1.1c-.08-.52-.38-1.05-.89-1.57s-1.27-.79-2.26-.79Z"/>
        <path class="cls-2" d="m126.73,68.92c0-.81-.24-1.41-.71-1.79-.47-.38-1.11-.57-1.92-.57-.54,0-1.07.07-1.6.2-.53.13-.98.33-1.35.59v13.64c-.27.08-.69.16-1.27.24-.58.08-1.18.12-1.8.12s-1.13-.04-1.6-.12c-.47-.08-.87-.24-1.19-.47-.32-.24-.57-.56-.75-.96-.18-.41-.26-.94-.26-1.59v-11.79c0-.71.15-1.28.46-1.73.31-.45.73-.85,1.27-1.22.92-.63,2.07-1.14,3.46-1.53,1.39-.39,2.93-.59,4.63-.59,3.05,0,5.39.65,7.04,1.95,1.64,1.3,2.47,3.1,2.47,5.4v12.3c-.27.08-.69.16-1.27.24-.58.08-1.18.12-1.8.12s-1.13-.04-1.6-.12c-.47-.08-.87-.24-1.19-.47-.32-.24-.57-.56-.75-.96-.17-.41-.26-.94-.26-1.59v-9.28Z"/>
        <path class="cls-2" d="m144.85,80.98c-.3.05-.74.12-1.31.22-.58.09-1.17.14-1.76.14s-1.12-.04-1.6-.12c-.47-.08-.87-.24-1.19-.47-.32-.24-.57-.56-.75-.96-.18-.41-.26-.94-.26-1.59v-22.79c.3-.05.73-.12,1.31-.22s1.17-.14,1.76-.14,1.12.04,1.6.12c.47.08.87.24,1.19.47.32.24.57.56.75.96.18.41.26.94.26,1.59v22.79Z"/>
        <path class="cls-2" d="m159.56,81.65c-1.59,0-3.07-.22-4.43-.65-1.36-.43-2.55-1.08-3.56-1.95s-1.81-1.95-2.39-3.26c-.58-1.31-.87-2.84-.87-4.6s.29-3.21.87-4.46c.58-1.24,1.34-2.27,2.28-3.07.94-.8,2.02-1.39,3.23-1.77,1.21-.38,2.45-.57,3.72-.57,1.43,0,2.73.21,3.9.63,1.17.42,2.18,1,3.03,1.73.85.73,1.51,1.61,1.98,2.63.47,1.02.71,2.14.71,3.34,0,.89-.26,1.57-.77,2.04-.51.47-1.23.77-2.14.9l-9.99,1.45c.3.86.9,1.51,1.82,1.95.92.43,1.97.65,3.15.65,1.1,0,2.15-.14,3.13-.41.98-.28,1.79-.6,2.41-.96.43.26.79.63,1.09,1.1.3.47.44.97.44,1.49,0,1.18-.57,2.06-1.7,2.63-.86.45-1.83.75-2.91.9-1.08.16-2.09.24-3.03.24Zm-1.13-15.44c-.65,0-1.21.1-1.68.31-.47.21-.86.48-1.15.81-.3.33-.52.69-.67,1.1-.15.41-.24.82-.26,1.24l6.91-1.1c-.08-.52-.38-1.05-.89-1.57s-1.27-.79-2.26-.79Z"/>
        <path class="cls-2" d="m178.24,80.98c-.27.08-.69.16-1.27.24-.58.08-1.18.12-1.8.12s-1.13-.04-1.6-.12c-.47-.08-.87-.24-1.19-.47-.32-.24-.57-.56-.75-.96-.18-.41-.26-.94-.26-1.59v-11.79c0-.6.11-1.12.34-1.55.23-.43.56-.82.99-1.16.43-.34.96-.65,1.6-.92.63-.28,1.31-.52,2.04-.73.73-.21,1.48-.37,2.26-.49.78-.12,1.56-.18,2.34-.18,1.29,0,2.32.24,3.07.73.75.49,1.13,1.28,1.13,2.38,0,.37-.05.73-.16,1.08-.11.35-.24.67-.4.96-.57,0-1.15.03-1.74.08-.59.05-1.17.13-1.74.24-.57.1-1.1.22-1.6.33-.5.12-.92.25-1.27.41v13.4Z"/>
        <path class="cls-2" d="m203.55,71.55c-1.19-.39-2.26-.79-3.23-1.2-.97-.41-1.81-.9-2.51-1.47-.7-.58-1.25-1.26-1.64-2.06-.39-.8-.59-1.77-.59-2.93,0-2.23.88-4.01,2.65-5.34,1.77-1.34,4.24-2,7.42-2,1.16,0,2.24.08,3.23.24,1,.16,1.85.4,2.57.73.71.33,1.27.75,1.68,1.26s.61,1.11.61,1.79-.16,1.26-.49,1.75-.71.9-1.17,1.24c-.59-.37-1.39-.69-2.38-.96-1-.27-2.09-.41-3.27-.41s-2.1.16-2.67.49c-.57.33-.85.74-.85,1.24,0,.39.17.71.53.96.35.25.88.48,1.58.69l2.14.67c2.53.79,4.48,1.79,5.84,3.01,1.36,1.22,2.04,2.88,2.04,4.97,0,2.23-.9,4.03-2.71,5.4-1.81,1.38-4.46,2.06-7.96,2.06-1.24,0-2.39-.1-3.46-.29-1.07-.2-2-.48-2.79-.86s-1.42-.85-1.86-1.42-.67-1.21-.67-1.95.23-1.41.69-1.95c.46-.54.96-.95,1.5-1.24.75.58,1.68,1.08,2.77,1.49s2.28.63,3.58.63,2.25-.2,2.79-.59c.54-.39.81-.85.81-1.38s-.22-.92-.65-1.2c-.43-.28-1.04-.54-1.82-.81l-1.7-.55Z"/>
        <path class="cls-2" d="m226.83,61.33c1.46,0,2.78.14,3.98.43,1.2.29,2.22.73,3.07,1.32.85.59,1.5,1.34,1.96,2.24.46.9.69,1.97.69,3.2v8.8c0,.68-.2,1.24-.59,1.67-.39.43-.86.8-1.4,1.12-1.75,1.02-4.22,1.53-7.4,1.53-1.43,0-2.71-.13-3.86-.39-1.15-.26-2.13-.65-2.95-1.18-.82-.52-1.46-1.19-1.9-2-.44-.81-.67-1.75-.67-2.83,0-1.81.55-3.2,1.66-4.17,1.11-.97,2.82-1.57,5.13-1.81l5.3-.55v-.27c0-.76-.34-1.3-1.03-1.63-.69-.33-1.68-.49-2.97-.49-1.02,0-2.02.11-2.99.31-.97.21-1.85.47-2.63.79-.35-.24-.65-.6-.89-1.08-.24-.49-.36-.99-.36-1.51,0-.68.17-1.22.51-1.63.34-.41.85-.75,1.56-1.04.78-.29,1.71-.5,2.77-.63s2.07-.2,3.01-.2Zm.32,15.44c.46,0,.96-.05,1.52-.14.55-.09.96-.22,1.23-.37v-3.14l-2.91.24c-.75.05-1.38.21-1.86.47-.49.26-.73.66-.73,1.18s.21.95.63,1.28c.42.33,1.12.49,2.12.49Z"/>
        <path class="cls-2" d="m250.32,61.33c1.54,0,2.93.19,4.18.57,1.25.38,2.31.87,3.17,1.47.54.37.96.77,1.27,1.22.31.45.46,1.02.46,1.73v13.75c0,1.39-.27,2.59-.81,3.6-.54,1.01-1.27,1.85-2.2,2.52-.93.67-2.02,1.16-3.27,1.47-1.25.31-2.59.47-4.02.47-2.45,0-4.38-.32-5.78-.96-1.4-.64-2.1-1.68-2.1-3.12,0-.6.13-1.13.38-1.59.26-.46.55-.81.87-1.04.78.42,1.66.77,2.65,1.06.98.29,2,.43,3.05.43,1.46,0,2.61-.24,3.48-.71s1.29-1.23,1.29-2.28v-.63c-1.11.47-2.45.71-4.04.71-1.21,0-2.37-.18-3.46-.53-1.09-.35-2.05-.9-2.87-1.65-.82-.75-1.48-1.71-1.98-2.89-.5-1.18-.75-2.58-.75-4.2s.26-2.99.79-4.17,1.25-2.16,2.18-2.93,2.03-1.35,3.31-1.73c1.28-.38,2.67-.57,4.18-.57Zm-.28-2.04c-2.26,0-4-.4-5.21-1.2s-1.82-1.79-1.82-2.97c0-.68.26-1.32.79-1.93.53-.6,1.34-.9,2.45-.9h.36c.11,0,.23.01.36.04.13.58.47,1.06,1.01,1.45s1.23.59,2.06.59,1.52-.2,2.04-.59.87-.88,1.03-1.45c.13-.03.25-.04.36-.04h.36c1.1,0,1.92.3,2.45.9.53.6.79,1.24.79,1.93,0,1.18-.61,2.17-1.82,2.97s-2.95,1.2-5.22,1.2Zm2.79,7.74c-.19-.1-.46-.21-.83-.31s-.82-.16-1.35-.16c-1.32,0-2.31.36-2.97,1.08s-.99,1.75-.99,3.08c0,1.52.33,2.61.99,3.28s1.5,1,2.53,1c1.1,0,1.98-.25,2.63-.75v-7.23Z"/>
        <path class="cls-2" d="m270.65,80.98c-.3.05-.74.12-1.31.22-.58.09-1.17.14-1.76.14s-1.12-.04-1.6-.12c-.47-.08-.87-.24-1.19-.47-.32-.24-.57-.56-.75-.96-.18-.41-.26-.94-.26-1.59v-22.79c.3-.05.73-.12,1.31-.22s1.17-.14,1.76-.14,1.12.04,1.6.12c.47.08.87.24,1.19.47.32.24.57.56.75.96.18.41.26.94.26,1.59v22.79Z"/>
        <path class="cls-2" d="m282.02,80.98c-.3.05-.73.12-1.31.22-.58.09-1.17.14-1.76.14s-1.13-.04-1.6-.12c-.47-.08-.87-.24-1.19-.47-.32-.24-.57-.56-.75-.96-.17-.41-.26-.94-.26-1.59v-16c.3-.05.73-.12,1.31-.22.58-.09,1.17-.14,1.76-.14s1.12.04,1.6.12c.47.08.87.24,1.19.47.32.24.57.56.75.96.17.41.26.94.26,1.59v16Z"/>
        <path class="cls-2" d="m305.58,77.56c-.14,1.23-.51,2.17-1.11,2.83s-1.49.98-2.65.98c-.86,0-1.63-.2-2.3-.61-.67-.41-1.4-1.09-2.18-2.06l-4-4.87v7.15c-.3.05-.73.12-1.31.22-.58.09-1.17.14-1.76.14s-1.13-.04-1.6-.12c-.47-.08-.87-.24-1.19-.47-.32-.24-.57-.56-.75-.96-.18-.41-.26-.94-.26-1.59v-22.75c.3-.08.73-.16,1.31-.25.58-.09,1.17-.14,1.76-.14s1.12.04,1.6.12c.47.08.87.24,1.19.47.32.24.57.56.75.96.17.41.26.94.26,1.59v10.38l6.95-6.92c1.4,0,2.53.3,3.38.9.85.6,1.27,1.36,1.27,2.28,0,.39-.07.75-.2,1.08-.13.33-.34.66-.63,1-.28.34-.65.7-1.09,1.08s-.96.82-1.56,1.32l-2.34,1.96,6.47,6.29Z"/>
        <path class="cls-2" d="m324.54,72.18v8.68c-.3.08-.77.16-1.42.24-.65.08-1.28.12-1.9.12s-1.17-.05-1.64-.14c-.47-.09-.87-.25-1.19-.49-.32-.24-.57-.56-.73-.98-.16-.42-.24-.97-.24-1.65v-20.75c.3-.05.77-.12,1.42-.22.65-.09,1.27-.14,1.86-.14s1.17.05,1.64.14c.47.09.87.26,1.19.49s.57.56.73.98c.16.42.24.97.24,1.65v6.25l8.41-9.39c1.83,0,3.15.33,3.94,1,.79.67,1.19,1.46,1.19,2.38,0,.68-.18,1.32-.53,1.93-.35.6-.92,1.28-1.7,2.04l-5.05,4.91c.67.73,1.38,1.49,2.12,2.28.74.79,1.47,1.55,2.18,2.3.71.75,1.4,1.46,2.06,2.14s1.23,1.27,1.72,1.77c0,.58-.11,1.09-.32,1.53-.22.45-.51.83-.87,1.14-.36.31-.78.55-1.23.71-.46.16-.94.24-1.46.24-1.11,0-2.01-.27-2.71-.81-.7-.54-1.38-1.17-2.02-1.91l-5.7-6.44Z"/>
        <path class="cls-2" d="m349.85,61.33c1.46,0,2.78.14,3.98.43,1.2.29,2.22.73,3.07,1.32.85.59,1.5,1.34,1.96,2.24.46.9.69,1.97.69,3.2v8.8c0,.68-.2,1.24-.59,1.67-.39.43-.86.8-1.4,1.12-1.75,1.02-4.22,1.53-7.4,1.53-1.43,0-2.71-.13-3.86-.39-1.15-.26-2.13-.65-2.95-1.18-.82-.52-1.46-1.19-1.9-2-.44-.81-.67-1.75-.67-2.83,0-1.81.55-3.2,1.66-4.17,1.11-.97,2.82-1.57,5.13-1.81l5.3-.55v-.27c0-.76-.34-1.3-1.03-1.63-.69-.33-1.68-.49-2.97-.49-1.02,0-2.02.11-2.99.31-.97.21-1.85.47-2.63.79-.35-.24-.65-.6-.89-1.08-.24-.49-.36-.99-.36-1.51,0-.68.17-1.22.51-1.63.34-.41.85-.75,1.56-1.04.78-.29,1.71-.5,2.77-.63s2.07-.2,3.01-.2Zm.32,15.44c.46,0,.96-.05,1.52-.14.55-.09.96-.22,1.23-.37v-3.14l-2.91.24c-.75.05-1.38.21-1.86.47-.49.26-.73.66-.73,1.18s.21.95.63,1.28c.42.33,1.12.49,2.12.49Z"/>
        <path class="cls-2" d="m363.84,55.44c.27-.08.7-.16,1.29-.25s1.2-.14,1.82-.14,1.12.04,1.6.12c.47.08.87.24,1.19.47.32.24.57.56.73.96.16.41.24.94.24,1.59v3.85c.67-.26,1.31-.45,1.92-.55s1.27-.16,2-.16c1.29,0,2.52.22,3.68.67,1.16.45,2.18,1.09,3.07,1.95s1.59,1.91,2.1,3.16c.51,1.26.77,2.71.77,4.36s-.26,3.19-.79,4.46-1.26,2.33-2.2,3.16c-.94.84-2.1,1.47-3.46,1.91-1.36.43-2.86.65-4.51.65-1.78,0-3.29-.2-4.53-.61-1.24-.41-2.29-.91-3.15-1.51-1.19-.81-1.78-1.86-1.78-3.14v-20.95Zm9.46,20.95c1.24,0,2.2-.41,2.89-1.24.69-.83,1.03-2.05,1.03-3.67s-.35-2.88-1.05-3.69c-.7-.81-1.64-1.22-2.83-1.22-.54,0-1,.05-1.39.16-.39.1-.82.26-1.27.47v8.57c.3.18.65.33,1.07.45.42.12.94.18,1.56.18Z"/>
        <path class="cls-2" d="m387.45,56.62c0-1,.34-1.83,1.03-2.52.69-.68,1.6-1.02,2.73-1.02s2.04.34,2.73,1.02c.69.68,1.03,1.52,1.03,2.52s-.34,1.83-1.03,2.51c-.69.68-1.6,1.02-2.73,1.02s-2.04-.34-2.73-1.02c-.69-.68-1.03-1.52-1.03-2.51Zm7.2,24.37c-.3.05-.73.12-1.31.22-.58.09-1.17.14-1.76.14s-1.13-.04-1.6-.12c-.47-.08-.87-.24-1.19-.47-.32-.24-.57-.56-.75-.96-.17-.41-.26-.94-.26-1.59v-16c.3-.05.73-.12,1.31-.22.58-.09,1.17-.14,1.76-.14s1.12.04,1.6.12c.47.08.87.24,1.19.47.32.24.57.56.75.96.17.41.26.94.26,1.59v16Z"/>
        <path class="cls-2" d="m411.46,68.92c0-.81-.24-1.41-.71-1.79-.47-.38-1.11-.57-1.92-.57-.54,0-1.07.07-1.6.2-.53.13-.98.33-1.35.59v13.64c-.27.08-.69.16-1.27.24-.58.08-1.18.12-1.8.12s-1.13-.04-1.6-.12c-.47-.08-.87-.24-1.19-.47-.32-.24-.57-.56-.75-.96-.18-.41-.26-.94-.26-1.59v-11.79c0-.71.15-1.28.46-1.73.31-.45.73-.85,1.27-1.22.92-.63,2.07-1.14,3.46-1.53,1.39-.39,2.93-.59,4.63-.59,3.05,0,5.39.65,7.04,1.95,1.64,1.3,2.47,3.1,2.47,5.4v12.3c-.27.08-.69.16-1.27.24-.58.08-1.18.12-1.8.12s-1.13-.04-1.6-.12c-.47-.08-.87-.24-1.19-.47-.32-.24-.57-.56-.75-.96-.17-.41-.26-.94-.26-1.59v-9.28Z"/>
        <path class="cls-2" d="m422.42,56.62c0-1,.34-1.83,1.03-2.52.69-.68,1.6-1.02,2.73-1.02s2.04.34,2.73,1.02c.69.68,1.03,1.52,1.03,2.52s-.34,1.83-1.03,2.51c-.69.68-1.6,1.02-2.73,1.02s-2.04-.34-2.73-1.02c-.69-.68-1.03-1.52-1.03-2.51Zm7.2,24.37c-.3.05-.73.12-1.31.22-.58.09-1.17.14-1.76.14s-1.13-.04-1.6-.12c-.47-.08-.87-.24-1.19-.47-.32-.24-.57-.56-.75-.96-.17-.41-.26-.94-.26-1.59v-16c.3-.05.73-.12,1.31-.22.58-.09,1.17-.14,1.76-.14s1.12.04,1.6.12c.47.08.87.24,1.19.47.32.24.57.56.75.96.17.41.26.94.26,1.59v16Z"/>
      </g>
      <g>
        <path class="cls-1" d="m158.4,26.99c0-2.04.33-3.85.99-5.42s1.56-2.89,2.71-3.95c1.15-1.06,2.49-1.87,4.04-2.42,1.55-.55,3.23-.83,5.03-.83s3.48.28,5.03.83c1.55.55,2.9,1.36,4.06,2.42s2.07,2.38,2.73,3.95c.66,1.57.99,3.38.99,5.42s-.32,3.86-.97,5.44c-.65,1.59-1.54,2.91-2.69,3.97s-2.5,1.87-4.06,2.42c-1.56.55-3.26.83-5.09.83s-3.53-.28-5.09-.85c-1.56-.56-2.91-1.38-4.04-2.46-1.13-1.07-2.02-2.4-2.67-3.97-.65-1.57-.97-3.37-.97-5.38Zm4.61-17.72c0-.92.34-1.71,1.01-2.38s1.51-1,2.51-1c1.13,0,2.02.33,2.67,1,.65.67.97,1.46.97,2.38s-.32,1.71-.97,2.38c-.65.67-1.54,1-2.67,1-.49,0-.94-.09-1.38-.27-.43-.18-.81-.43-1.13-.73s-.57-.65-.75-1.06c-.17-.41-.26-.85-.26-1.32Zm2.67,17.72c0,2.38.5,4.17,1.5,5.34,1,1.18,2.33,1.77,4,1.77s3.04-.59,4.04-1.77c1-1.18,1.5-2.96,1.5-5.34s-.49-4.13-1.48-5.31c-.98-1.18-2.32-1.77-4.02-1.77s-3.01.58-4.02,1.75c-1.01,1.17-1.52,2.94-1.52,5.33Zm6.39-17.72c0-.92.32-1.71.95-2.38s1.52-1,2.65-1c.51,0,.98.09,1.42.27.43.18.81.43,1.13.75s.57.67.75,1.08c.17.41.26.83.26,1.28,0,.92-.34,1.71-1.01,2.38-.67.67-1.52,1-2.55,1-1.13,0-2.02-.33-2.65-1-.63-.67-.95-1.46-.95-2.38Z"/>
        <path class="cls-1" d="m188.2,38.94c-.43-.37-.77-.8-1.03-1.3-.26-.5-.38-1.06-.38-1.69,0-.52.13-1.04.38-1.55.26-.51.57-.99.95-1.43l6.95-7.94h-7.44c-.16-.29-.32-.65-.46-1.1-.15-.45-.22-.93-.22-1.45,0-.92.21-1.58.63-1.98.42-.41.98-.61,1.68-.61h12.73c.43.37.77.8,1.03,1.3.26.5.38,1.06.38,1.69,0,.52-.13,1.04-.38,1.55-.26.51-.57.99-.95,1.43l-6.79,7.94h7.92c.16.29.32.65.46,1.1.15.45.22.93.22,1.45,0,.92-.21,1.58-.63,1.98-.42.41-.98.61-1.68.61h-13.38Z"/>
        <path class="cls-1" d="m216.94,39.57c-1.59,0-3.07-.22-4.43-.65-1.36-.43-2.55-1.08-3.56-1.95-1.01-.86-1.81-1.95-2.39-3.26-.58-1.31-.87-2.84-.87-4.6s.29-3.22.87-4.46c.58-1.24,1.34-2.27,2.28-3.07.94-.8,2.02-1.39,3.23-1.77,1.21-.38,2.45-.57,3.72-.57,1.43,0,2.73.21,3.9.63,1.17.42,2.18,1,3.03,1.73.85.73,1.51,1.61,1.98,2.63.47,1.02.71,2.14.71,3.34,0,.89-.26,1.57-.77,2.04-.51.47-1.23.77-2.14.9l-9.99,1.45c.3.86.9,1.51,1.82,1.95.92.43,1.97.65,3.15.65,1.1,0,2.15-.14,3.13-.41.98-.27,1.79-.6,2.41-.96.43.26.79.63,1.09,1.1.3.47.44.97.44,1.49,0,1.18-.57,2.06-1.7,2.63-.86.45-1.83.75-2.91.9-1.08.16-2.09.24-3.03.24Zm-1.13-15.44c-.65,0-1.21.1-1.68.31-.47.21-.86.48-1.15.81-.3.33-.52.69-.67,1.1-.15.41-.24.82-.26,1.24l6.91-1.1c-.08-.52-.38-1.05-.89-1.57-.51-.52-1.27-.79-2.26-.79Z"/>
        <path class="cls-1" d="m235.74,38.9c-.3.05-.74.12-1.31.22-.58.09-1.17.14-1.76.14s-1.12-.04-1.6-.12-.87-.24-1.19-.47-.57-.56-.75-.96c-.18-.41-.26-.94-.26-1.59V13.32c.3-.05.73-.12,1.31-.22s1.17-.14,1.76-.14,1.12.04,1.6.12.87.24,1.19.47c.32.24.57.56.75.96.18.41.26.94.26,1.59v22.79Z"/>
      </g>
      <g>
        <path class="cls-1" d="m28.5,43.25c0-4.49,1.93-6.38,6.51-6.38,16.72,0,13.44,0,30.16,0,.58,0,1.15,0,1.87,0v-2.1c0-16.19,0-12.37,0-28.56,0-4.33,1.9-6.19,6.3-6.2,6.03,0,12.06,0,18.09,0,15.53,0,31.06,0,46.59,0,4.28,0,6.23,1.91,6.23,6.05,0,18.52,0,17.04,0,35.57,0,3.27-2.14,5.58-5.21,5.61-3.15.03-5.4-2.31-5.4-5.66,0-16.31-.01-12.62-.01-28.94,0-.68,0-1.36,0-2.26-1,0-1.82,0-2.64,0-17.25-.05-34.51-.09-51.76-.18-1.36,0-1.72.5-1.7,1.75.09,5.45.12,10.9.13,16.35.02,10.86-.1,1.72.05,12.57.06,4.04-2.28,6.46-6.5,6.42-15.11-.17-10.22-.11-25.33-.14-2.19,0-4.37,0-6.73,0,0,1.16.05,2.02-.01,2.88-.09,1.3-.26,2.6-.39,3.89.05,1.39.1,2.78.15,4.17.08.62.24,1.23.24,1.85.02,13.18.01,16.36.02,29.54,0,.67,0,1.34,0,2.18,1.03,0,1.79,0,2.56,0,16.66,0,13.32.01,29.99.02,3.74,0,5.95,2.03,5.95,5.46,0,5.85,0,11.7,0,17.55,0,10.51,0,1.02.01,11.53,0,.72,0,1.45,0,2.25,18.8,0,37.29,0,55.97,0,0-.9,0-1.64,0-2.38,0-16.08.08-12.17-.05-28.25-.03-3.38,2.2-6.26,6.35-6.25,47.01.09,247.43.06,294.44.05.72,0,1.44-.02,2.15.03,3.26.25,5.53,3.48,4.6,6.51-.8,2.62-2.7,3.82-6.06,3.82-29.32,0-212.06-.01-241.38-.01-15.71,0-31.42,0-47.13,0-.7,0-1.4,0-2.3,0,0,.85,0,1.53,0,2.21,0,16.32,0,12.63,0,28.95,0,3.7-2.03,5.68-5.85,5.69-2.27,0-4.53-.04-6.8-.04-19.77.01-39.54.03-59.31.03-2.76,0-4.88-1.92-5.17-4.58-.1-.92-.08-1.86-.08-2.78,0-15.74,0-11.47-.01-27.21,0-.74,0-1.48,0-2.12-.23-.13-.28-.18-.32-.18-17.32,0-14.64-.02-31.96,0-4.19,0-6.26-1.93-6.26-6.05,0-20.89,0-31.78,0-52.67Z"/>
        <g>
          <path class="cls-2" d="m18.27,39c1.54.02,2.45.93,2.43,2.18-.02,1.3-1,2.15-2.58,2.16-2.56.02-5.12,0-7.69,0-2.65,0-5.3.02-7.94,0-1.45-.01-2.45-.9-2.49-2.15-.04-1.23.96-2.25,2.38-2.26,5.29-.02,10.59,0,15.88.06Z"/>
          <path class="cls-2" d="m35.35,26.6c-.01,1.57-.95,2.54-2.37,2.51-1.34-.02-2.19-.97-2.19-2.53-.01-4.95,0-9.9,0-14.84,0-1.68.81-2.59,2.23-2.62,1.52-.03,2.33.88,2.34,2.64,0,2.41,0,4.82,0,7.23h0c0,2.54.01,5.07,0,7.61Z"/>
          <path class="cls-2" d="m48.99,28.86c-1.33,1.29-2.68,2.57-4.04,3.83-.71.66-1.62.95-2.45.39-.64-.43-1.08-1.16-1.65-1.79.42-.74.65-1.34,1.05-1.79.69-.79,1.48-1.49,2.24-2.23,2.97-2.87,5.94-5.74,8.89-8.63.75-.73,1.67-1.07,2.55-.63.63.31,1.4,1.1,1.42,1.69.02.78-.47,1.74-1.05,2.34-2.25,2.33-4.62,4.56-6.95,6.81Z"/>
          <path class="cls-2" d="m23.07,53.99c-3.35,3.26-6.69,6.53-10.04,9.78-.72.7-1.66,1.07-2.55.55-.69-.41-1.15-1.17-1.73-1.78.37-.73.51-1.3.87-1.66,3.84-3.78,7.69-7.54,11.58-11.27.84-.8,2.2-.72,3.03.03.88.8.98,2.07.17,3.02-.4.48-.89.9-1.34,1.34Z"/>
          <path class="cls-2" d="m21.06,32.63c-3.75-3.63-7.49-7.28-11.2-10.96-.45-.44-.68-1.09-1.15-1.87.63-.65,1.09-1.38,1.76-1.76.93-.53,1.8-.05,2.51.64,1.27,1.22,2.53,2.45,3.8,3.67,2.48,2.38,4.99,4.73,7.45,7.13.98.95.94,2.35.03,3.24-.87.85-2.24.86-3.21-.08Z"/>
        </g>
      </g>
    </g>
  </g>
</svg>